<svg xmlns="http://www.w3.org/2000/svg" version="1.1" width="600px" height="600px" viewBox="0 0 200 200" style="overflow:hidden!important;"><g id="svga-group-wrapper"><g id="svga-group-backs-single"><path id="SvgjsPath5245" d="M0 0h200v200H0V0z" fill="#ecf0f1" stroke-width="none" opacity="1"></path></g><g id="svga-group-humanwrap-move" transform="matrix(1,0,0,1,0,6)"><g id="svga-group-humanwrap" transform="matrix(1.1500006000000005,0,0,1.1500006000000005,-14.925062274931008,-19.098378471455447)"><g id="svga-group-hair-back-move" transform="matrix(1,2.856368900253737e-18,-2.856368900253737e-18,1,0,0)"><g id="svga-group-hair-back"></g></g><g id="svga-group-humanbody-back"><path id="SvgjsPath5198" d="M166.5 181.1c-10.9-6.6-27.6-8.4-35-12.1-4.9-2.5-9.1-4.7-8.9-17.8s1.9-42.4 1.9-42.4H75.4s1.6 29.4 1.9 42.4-4.2 15.6-8.9 17.8c-7.4 3.5-24.1 5.4-35 12.1-10.8 6.6-10 18.9-10 18.9v19.7h153.3V200c-.1 0 .7-12.3-10.2-18.9z" fill="#f0c7b1" stroke-width="none" opacity="1"></path></g><g id="svga-group-chinshadow-single"><path id="SvgjsPath5556" d="M124.5 108.9H75.4c.1 1.8 1.6 29.7 1.9 42.3.1 2.6-.1 4.8-.3 6.6 11.9 10.2 23 9 23 9s11.1 1.2 23-8.9c-.3-1.8-.4-4-.4-6.6.2-12.8 1.8-40.6 1.9-42.4z" fill="#d19271" stroke-width="none" opacity="0.65"></path></g><g id="svga-group-humanbody-front"><path id="SvgjsPath5199" d="M78.7 156.8c.5 4.8 1.7 9.4 3.1 13.9.8 2.3 1.6 4.6 2.6 6.9.8 2 1.7 4.2 3.1 5.9.3.4 1 0 .9-.5-.5-2.2-1.6-4.3-2.4-6.4-.9-2.2-1.7-4.4-2.5-6.6-1.5-4.4-2.8-8.9-4.1-13.3-.2-.4-.8-.3-.7.1zm41.3-1c-1.3 8.2-3.9 16.1-5.4 24.2-.1.4.4.5.6.2 3.1-7.7 4.1-16.1 5.1-24.3-.1-.2-.3-.2-.3-.1zm-25.8 11.9c-.9 3.6 1.9 8.6 6.2 7.6.5-.1.4-.8 0-1-1.4-.5-2.9-.9-3.9-2.1-1.1-1.2-1.5-2.9-1.4-4.5 0-.4-.8-.5-.9 0z" fill="#d19271" stroke-width="none" opacity="1"></path><path id="SvgjsPath5200" d="M177.3 219.7c-.1-6.6-.3-13.1-.3-19.7l-.3-.3c.1 0 .1 0 .2.1s.1.2.1.1v-1.4c0-.5-.1-.9-.1-1.4-.1-.9-.3-1.9-.5-2.8-.5-1.8-1.1-3.6-2-5.3-1.7-3.4-4.4-6.2-7.7-8.1-3.6-2.2-7.6-3.8-11.6-5.1-4-1.3-8.1-2.4-12.1-3.5-4-1.2-8.1-2.2-11.8-4.2-1.9-1-3.6-2.1-4.8-3.6-1.2-1.6-1.9-3.5-2.3-5.5-.8-4-.4-8.2-.3-12.4l.7-12.6 1.5-25.2.1-1.4h-1.4c-8.2 0-16.4 0-24.6.1l-24.6.3h-.9l.1.9c.8 11.9 1.6 23.8 2.1 35.7.1 3 .3 6 .2 8.9-.1 2.9-.4 5.9-1.6 8.6-.6 1.3-1.4 2.5-2.4 3.5s-2.3 1.8-3.6 2.4c-2.6 1.3-5.4 2.2-8.3 3-5.8 1.5-11.6 2.8-17.3 4.7-2.8.9-5.7 2-8.4 3.4-1.3.7-2.7 1.4-4 2.4-1.3.9-2.4 1.9-3.5 3.1-2.1 2.3-3.6 5.2-4.5 8.1-.5 1.5-.8 3-1 4.6-.1.8-.1 1.6-.1 2.4v2.3l-.2 17.9v1.3h1.4l38.3.2c12.8.1 25.5.1 38.3 0 12.8-.1 25.6-.1 38.3-.3 12.8-.2 25.6-.5 38.3-.7h.6v-.5zm-77.2-1.6H61.8l-37 .2-.1-16.6v-2.2c0-.7 0-1.4.1-2.1.1-1.4.4-2.8.8-4.2.8-2.7 2.1-5.3 3.9-7.5.9-1.1 2-2.1 3.1-2.9 1.1-.9 2.4-1.6 3.7-2.3 2.6-1.4 5.3-2.5 8.1-3.5 5.6-2 11.4-3.4 17.1-5.1 2.9-.8 5.8-1.7 8.5-3.1 1.3-.7 2.7-1.5 3.8-2.6 1.1-1.1 2-2.4 2.6-3.9 1.2-2.9 1.5-5.9 1.6-8.9 0-3-.1-6-.2-9l-1.3-34.8 23.5.4c7.7.1 15.4.1 23.1.1-.4 7.9-.8 15.9-1.1 23.8-.2 4.2-.2 8.4-.3 12.6 0 4.2-.2 8.5.8 12.8.5 2.1 1.3 4.2 2.8 6 1.4 1.7 3.4 2.9 5.3 3.8 3.9 1.9 8 2.8 12.1 3.8s8.2 2 12.2 3.3c4 1.3 7.9 2.8 11.5 5 3.2 1.9 5.8 4.7 7.5 8 .9 1.6 1.5 3.4 1.9 5.2.2.9.4 1.8.4 2.7.1.5.1.9.1 1.4V200l-.3 19c-12.6-.2-25.1-.5-37.7-.7-12.7-.1-25.5-.1-38.2-.2z" fill="#c27b55" stroke-width="none" opacity="1"></path></g><g id="svga-group-clothes-single"><path id="SvgjsPath9207" d="M179.6 220.1s.2-11.6 0-20.3-4.1-14.6-8.3-18.7c-4.2-4.1-19.6-8.5-28.5-10.9s-13.7-9.1-13.7-9.1 0-11.3-.2-12-1.7-1.1-1.7-1.1-2.4 3.5-6.7 5.4c-4.2 1.9-14.3 4.2-16.9 4.8s-2.2 11.1-2.2 11.1h-2.9s.4-10.5-2.2-11.1-12.7-3-16.9-4.8c-4.2-1.9-6.2-5.7-6.2-5.7s-2 .7-2.2 1.4-.2 12-.2 12-4.8 6.7-13.7 9.1c-8.9 2.4-24.2 6.8-28.5 10.9-4.2 4.1-8.1 10-8.3 18.7-.2 8.7 0 20.3 0 20.3h159.3z" fill="#003740" stroke-width="none" opacity="1" stroke="none"></path><path id="SvgjsPath9208" d="M90.2 178.5h19.4v2.9H90.2v-2.9zm0 16.5h19.4v2.9H90.2V195zm0 15.4h19.4v2.9H90.2v-2.9z" fill="#c9c9c9" stroke-width="none" opacity="1"></path><path id="SvgjsPath9209" d="M38.7 199.4c-.7-3.1-1.7-6.1-3-9s-2.9-5.7-4.9-8.1c.8 1.4 1.6 2.7 2.3 4.1.7 1.4 1.3 2.8 1.9 4.3 1.1 2.9 2.1 5.9 2.7 8.9.7 3.1 1.2 6.1 1.7 9.3.2 1.6.4 3.1.6 4.7.2 1.6.3 3.1.5 4.7.2-3.2 0-6.3-.3-9.5s-.9-6.3-1.5-9.4zm122.9 0c-.7 3.1-1.2 6.2-1.5 9.4-.3 3.1-.4 6.3-.3 9.5.1-1.6.3-3.1.5-4.7s.4-3.1.6-4.7c.5-3.1 1-6.2 1.7-9.3.6-3.1 1.6-6 2.7-8.9.6-1.5 1.2-2.9 1.9-4.3s1.4-2.8 2.3-4.1c-2 2.5-3.6 5.2-4.9 8.1-1.4 2.9-2.4 5.9-3 9zm18.3-1.5c-.3-3.7-1.3-7.5-3.2-10.8-.9-1.6-2-3.2-3.3-4.6-.6-.7-1.2-1.4-2-2-.7-.7-1.5-1.2-2.4-1.7-3.3-1.9-6.8-3.2-10.3-4.5-3.5-1.2-7-2.3-10.6-3.4l-5.3-1.5c-1.7-.5-3.4-1.2-5-2-3.1-1.6-5.9-3.9-8-6.6l-.1-6.7-.1-3.5v-.9c0-.2 0-.3-.1-.5 0-.2-.2-.6-.3-.8-.3-.4-.7-.6-1-.8s-.6-.3-1-.4h-.3c-.6-.1-2.7-.6-3.5-.6l-.1 4-.1.1c-1.2.9-2.5 1.7-3.9 2.2-2.9 1.1-5.9 2-9 2.8-1.5.4-3.1.8-4.6 1.2l-2.3.6c-.1 0-.2.1-.4.1-.2.1-.3.1-.4.2l-.6.6c-.3.4-.4.8-.6 1.2-.5 1.6-.7 3.2-.8 4.8-.1 1.4-.1 2.8-.1 4.2h-1.9c0-1.4 0-2.8-.1-4.3-.1-1.6-.3-3.2-.8-4.8-.2-.4-.3-.8-.6-1.2-.1-.2-.3-.4-.5-.5s-.5-.3-.7-.3l-2.3-.5c-1.5-.4-3.1-.7-4.6-1.1-3.1-.8-6.1-1.6-9.1-2.7-1.2-.5-1.4-1.1-2.5-1.9.1-.5.2-1.9-.1-4.5 0 0-3.1 0-5.1.7-.6.2-1.2.4-1.7.9-.3.4-.2.8-.3 1v.9l-.1 3.5-.1 6.9c-2.2 2.8-5.2 5.1-8.3 6.8-1.6.8-3.3 1.5-5.1 2l-5.4 1.4c-3.6 1-7.1 2.1-10.6 3.2-1.8.6-3.5 1.2-5.2 1.9s-3.5 1.4-5.1 2.4c-.8.5-1.6 1-2.4 1.7-.7.6-1.4 1.3-2 2-1.3 1.4-2.4 2.9-3.4 4.6-1.9 3.3-3.1 7-3.4 10.8-.2 1.9-.1 3.7-.1 5.6v16.7c0 .5.4.9.9.9 78.7 2 159.2-.6 159.2-.6l.2-11.3.1-5.6c.6-1.6.7-3.4.5-5.3zm-40.5 21.7-39.5-.3c.1-2.5.1-2.9.2-5.4 1.6 0 3.2-.1 4.8-.1 1.6-.1 3.2-.1 4.7-.3.1-.9.2-1.9.2-3 0-.1-.1-.2-.2-.3-1.6-.1-3.2-.1-4.8-.2-1.5-.1-3-.1-4.6-.1 0-.8.1-1.7.1-2.5.1-3.2.1-6 .1-9.1 1.6 0 3.1-.1 4.6-.1 1.6-.1 3.2-.1 4.7-.3.1-.9.2-1.9.2-3 0-.1-.1-.2-.2-.3-1.6-.1-3.2-.2-4.8-.2-1.4-.1-2.9-.1-4.4-.1 0-3.9 0-7.9-.1-11.8v-.8c1.6 0 3.2-.1 4.7-.1 1.6-.1 3.2-.1 4.7-.3.1-.9.2-1.9.2-3 0-.1-.1-.2-.2-.3-1.6-.1-3.2-.1-4.8-.2-1.5-.1-3.1-.1-4.6-.1v-1.5c-.1-1.6-.1-3.2-.2-4.8 4.9 0 9.9-.6 14.6-1.9 4.8-1.4 9.4-3.4 13.1-6.8-1.9 1.5-4.1 2.7-6.4 3.7-2.2 1-4.6 1.8-7 2.4-4.7 1.1-9.6 1.7-14.5 1.6v-.4.4h-.1c-4.9 0-9.8-.6-14.5-1.8-2.4-.6-4.7-1.4-6.9-2.4s-4.4-2.1-6.4-3.6c3.8 3.2 8.4 5.3 13.2 6.7 4.8 1.4 9.8 2 14.7 2.1-.1 1.6-.1 3.2-.2 4.8v1.5l-4.8.3c-1.6 0-3.2.1-4.8.2-.1 0-.2.1-.2.3 0 1 .1 2 .1 2.9 0 .1.1.2.2.2 1.6 0 3.2 0 4.9.1 1.5.1 3 .1 4.4.2v.8c-.1 3.9-.1 7.9-.1 11.8l-4.3.1c-1.6 0-3.2.1-4.8.2-.1 0-.2.1-.2.3 0 1 .1 2 .1 2.9 0 .1.1.2.2.2 1.6 0 3.2 0 4.9.1 1.4.1 2.9.1 4.3.1 0 3.2 0 5.6.1 9.1v2.5l-4.5.1c-1.6 0-3.2.1-4.8.2-.1 0-.2.1-.2.3 0 1 .1 2 .1 2.9 0 .1.1.2.2.2 1.6 0 3.2 0 4.9.1 1.5.1 3.1.1 4.6.2.1 2.5.1 2.9.2 5.4h-.2c-13.2-.1-26.4-.1-39.6-.2-12.9-.1-25.7 0-38.6.1v-15.6c0-1.8-.1-3.7.1-5.5.3-3.6 1.3-7.1 3.1-10.2.9-1.6 1.9-3 3.1-4.4.6-.7 1.2-1.4 1.9-1.9.6-.6 1.4-1.1 2.1-1.5 1.5-.9 3.2-1.7 4.9-2.4s3.4-1.4 5.1-2c3.5-1.2 7-2.4 10.5-3.4l5.3-1.5c1.8-.5 3.6-1.2 5.2-2.1 1.7-.9 3.2-1.9 4.7-3.1s2.8-2.5 3.9-4c0-.1.1-.1.1-.2v-7.1l.1-3.5v-.9c0-.3 0-.5.1-.7.2-.3.7-.5 1.2-.7 1.9 2.5 4.5 4.5 7.4 5.6 3 1.1 6 2 9.1 2.8 1.5.4 3.1.8 4.6 1.2l2.3.5c.6.1.9.8 1.2 1.5.5 1.4.6 3 .7 4.6s.1 3.1 0 4.7c0 .3.2.5.5.5h2.9c.3 0 .5-.2.5-.5 0-1.6 0-3.1.1-4.7.1-1.5.3-3.1.8-4.5.1-.3.3-.7.4-.9l.3-.3.1-.1h.2l2.3-.5c1.6-.4 3.1-.7 4.6-1.1 3.1-.8 6.2-1.6 9.2-2.7 1.5-.6 3-1.4 4.3-2.4 1.1-.9 2.2-1.9 3.1-3 .3.1.5.2.5.3v1.3l.1 3.5v7c0 .2.1.4.2.5 1.2 1.6 2.6 2.9 4.1 4.1 1.5 1.2 3.1 2.3 4.8 3.1 1.7.9 3.5 1.6 5.3 2.1l5.3 1.5c3.5 1 7.1 2.1 10.5 3.3 1.7.6 3.5 1.2 5.1 1.9 1.7.7 3.4 1.4 4.9 2.3.8.4 1.5.9 2.2 1.5s1.3 1.2 1.9 1.9c1.2 1.3 2.3 2.8 3.2 4.4 1.8 3.1 2.9 6.6 3.3 10.3.2 1.8.1 3.6.2 5.4l.1 5.5.2 11.1-40.4-.7zm-39.5-24.1c1.6 0 3.2 0 4.8-.1 1.5 0 3.1-.1 4.6-.2.1.8.1 1.7.2 2.6-1.7-.1-3.4-.2-5-.3s-3.2-.1-4.8-.1c-1.6 0-3.1.1-4.7.2-1.5.1-3.1.1-4.6.1 0-.8.1-1.7.1-2.5 1.5.1 3.1.1 4.6.2l4.8.1zm-.1-14.4c-1.6 0-3.1.1-4.7.2-1.5.1-3.1.1-4.6.1 0-.8.1-1.7.1-2.5 1.5.1 3.1.1 4.6.2l4.8.1c1.6 0 3.2 0 4.8-.1 1.5 0 3.1-.1 4.6-.2.1.8.1 1.7.2 2.6-1.7-.1-3.4-.2-5-.3-1.7-.1-3.3-.1-4.8-.1zm.1 29.9c1.6 0 3.2 0 4.8-.1 1.5 0 3.1-.1 4.6-.2.1.8.1 1.7.2 2.6-1.7-.1-3.4-.2-5-.3s-3.2-.1-4.8-.1c-1.6 0-3.1.1-4.7.2-1.5.1-3.1.1-4.6.1 0-.8.1-1.7.1-2.5 1.5.1 3.1.1 4.6.2l4.8.1z" fill="#001d21" stroke-width="none" opacity="1" stroke="none"></path></g><g id="svga-group-head" transform="matrix(1,2.856368900253737e-18,-2.856368900253737e-18,1,0,0)"><g id="svga-group-ears-left-move" transform="matrix(1,0,0,1,0,0)"><g id="svga-group-ears-left"><path id="SvgjsPath5098" d="M62 92.9c-.2-.3-3.3-4.3-5.9-6.7-2.6-2.4-3.4-2.4-4.6-.9-1.3 1.5-2.9 9.1-2.5 12.4.4 3.4 3.6 8.7 5.2 11.7 1.7 3 3.3 6.7 5.1 6.3 1.9-.4 4.4-4.6 5.7-7.7 1.3-3.1.5-10.8-3-15.1z" fill="#f0c7b1" stroke-width="none" opacity="1"></path><path id="SvgjsPath5099" d="M65.8 102c.1.9.2 1.7.2 2.6s0 1.7-.2 2.6c-.1.4-.2.9-.3 1.3-.1.4-.3.7-.4 1.1-.3.7-.6 1.4-1 2.1-.7 1.3-1.5 2.6-2.6 3.6-.5.5-1.1 1-1.8 1.3-.4.1-.9.1-1.3 0-.4-.2-.8-.5-1.1-.8-1.2-1.3-1.9-2.8-2.7-4.3-.7-1.5-1.5-2.9-2.2-4.3-.7-1.5-1.5-2.9-2.1-4.4-.3-.8-.7-1.5-.9-2.3-.3-.8-.5-1.6-.6-2.5-.2-1.7 0-3.4.1-5 .2-1.6.5-3.2.8-4.8.2-.8.4-1.6.8-2.3l.3-.6c.1-.2.3-.4.4-.5.2-.3.5-.6.9-.8.3-.2.8-.3 1.2-.3.4.1.8.3 1.1.5.7.4 1.2 1 1.8 1.5 2.2 2.2 4 4.8 5.9 7.2 1.9 2.4 3.2 5.7 3.7 9.1zM55.7 86.4c-1.1-.9-2.4-1.9-3.1-1.2-.2.1-.4.4-.6.6l-.3.3c-.1.1-.1.3-.2.4-.3.6-.5 1.3-.8 2-.5 1.4-.9 2.9-1.1 4.5-.3 1.5-.5 3.1-.4 4.7.1.8.3 1.6.6 2.3.3.8.6 1.5.9 2.2.7 1.5 1.5 2.8 2.3 4.2.8 1.4 1.7 2.7 2.5 4.1.4.7.8 1.4 1.2 2s.8 1.3 1.3 1.7c.5.4.9.6 1.3.4.5-.2.9-.6 1.4-1.1.9-1 1.6-2.1 2.3-3.4.4-.6.7-1.3 1-1.9.2-.3.3-.7.4-1l.2-.5c0-.2.1-.3.1-.5.3-1.4.4-3 .3-4.6s-.4-3.2-.9-4.8c-.5-1.6-1.2-3-2.2-4.2-1.9-2.1-4-4.3-6.2-6.2z" fill="#e1ac8f" stroke-width="none" opacity="1"></path><path id="SvgjsPath5100" d="M51.2 99.4c-.3-2.3-.5-7.8.8-9.6 2.2-2.9 6 6.4 6.9 9.3 0 .1.1.2.1.3.2.3-.1.7-.4.6-.4-.2-.9-.6-1.3-.8-1.1-.5-1.6.5-1.3 1.8.4 1.8 1.4 2.9 2.2 4.3.1.2 0 .4-.2.3-1.6-.9-3.5-4.5-3.1-6.6.3-2 1.9-1.8 3.1-.8-.7-1.7-1.5-3.3-2.5-4.8-.6-.9-1.2-2-2.2-2.2-1.2-.2-1 .3-1.2 1.8-.8 4.8-.3 10.4 2.5 14.5.1.1 0 .2-.1.1-1.8-2.3-3-4.9-3.3-8.2z" fill="#d19271" stroke-width="none" opacity="1"></path></g></g><g id="svga-group-ears-right-move" transform="matrix(1,0,0,1,0,0)"><g id="svga-group-ears-right"><path id="SvgjsPath5101" d="M138 92.9c.2-.3 3.3-4.3 5.9-6.7 2.6-2.4 3.4-2.4 4.6-.9 1.3 1.5 2.9 9.1 2.5 12.4s-3.6 8.7-5.2 11.7c-1.7 3-3.3 6.7-5.1 6.3-1.9-.4-4.4-4.6-5.7-7.7s-.5-10.8 3-15.1z" fill="#f0c7b1" stroke-width="none" opacity="1"></path><path id="SvgjsPath5102" d="M138 92.9c1.9-2.4 3.8-5 5.9-7.2.5-.5 1.1-1.1 1.8-1.5.3-.2.7-.4 1.1-.5.4-.1.9.1 1.2.3.3.2.6.5.9.8.1.1.2.3.4.5l.3.6c.3.7.6 1.5.8 2.3.4 1.6.7 3.2.8 4.8.2 1.6.3 3.3.1 5-.1.9-.4 1.7-.6 2.5-.3.8-.6 1.6-.9 2.3-.7 1.5-1.4 3-2.1 4.4-.8 1.5-1.5 2.9-2.2 4.3-.8 1.4-1.4 3-2.7 4.3-.3.3-.7.6-1.1.8-.4.2-.9.2-1.3 0-.8-.3-1.3-.8-1.8-1.3-1-1.1-1.8-2.3-2.6-3.6-.4-.7-.7-1.4-1-2.1-.2-.4-.3-.7-.4-1.1-.1-.4-.3-.8-.3-1.3-.1-.9-.2-1.7-.2-2.6s.1-1.7.2-2.6c.4-3.4 1.7-6.7 3.7-9.1zm.1.1c-1 1.2-1.7 2.7-2.2 4.2-.5 1.6-.8 3.2-.9 4.8-.1 1.6 0 3.2.3 4.6 0 .2.1.3.1.5l.2.5c.1.3.3.7.4 1 .3.7.6 1.3 1 1.9.7 1.2 1.5 2.4 2.3 3.4.4.5.9.9 1.4 1.1.4.2.8 0 1.3-.4s.9-1 1.3-1.7c.4-.6.8-1.3 1.2-2 .8-1.4 1.7-2.8 2.5-4.1.8-1.4 1.6-2.8 2.3-4.2.4-.7.7-1.5.9-2.2.3-.8.5-1.6.6-2.3.1-1.6-.1-3.2-.4-4.7-.3-1.5-.7-3-1.1-4.5-.2-.7-.5-1.4-.8-2-.1-.1-.1-.3-.2-.4-.1-.1-.1-.2-.3-.3-.2-.2-.4-.5-.6-.6-.7-.6-2 .4-3.1 1.2-2.2 1.5-4.3 3.7-6.2 6.2z" fill="#e1ac8f" stroke-width="none" opacity="1"></path><path id="SvgjsPath5103" d="M148.8 99.4c.3-2.3.5-7.8-.8-9.6-2.2-2.9-6 6.4-6.9 9.3 0 .1-.1.2-.1.3-.2.3.1.7.4.6.4-.2.9-.6 1.3-.8 1.1-.5 1.6.5 1.3 1.8-.4 1.8-1.4 2.9-2.2 4.3-.1.2 0 .4.2.3 1.6-.9 3.5-4.5 3.1-6.6-.3-2-1.9-1.8-3.1-.8.7-1.7 1.5-3.3 2.5-4.8.6-.9 1.2-2 2.2-2.2 1.2-.2 1 .3 1.2 1.8.8 4.8.3 10.4-2.5 14.5-.1.1 0 .2.1.1 1.8-2.3 3-4.9 3.3-8.2z" fill="#d19271" stroke-width="none" opacity="1"></path></g></g><g id="svga-group-faceshape-wrap"><g id="svga-group-faceshape-single"><path id="SvgjsPath5544" d="M143.2 82v-.3c-1.3-29.9-20.7-46.4-43.2-46.4S58.1 51.8 56.9 81.7v.3c0 3 0 30.2 5.7 41.9C77.7 155 100 153.7 100 153.7s22.3 1.4 37.5-29.8c5.7-11.7 5.7-38.9 5.7-41.9z" fill="#f0c7b1" stroke-width="none" opacity="1"></path><path id="SvgjsPath5545" d="M137.5 123.9c5.7-11.7 5.7-38.9 5.7-41.9v-.3c-1.3-29.9-20.7-46.4-43.2-46.4S58.1 51.8 56.9 81.7v.3c0 3 0 30.2 5.7 41.9C77.7 155 100 153.7 100 153.7s22.3 1.4 37.5-29.8zM87.7 148c-4.2-1.7-8.5-5.5-11.8-8.8l-2.4-2.5-2.2-2.8c-.8-.9-1.4-1.9-2.1-2.9-.6-1-1.3-1.9-2-3l-1.7-3.1c-.6-1-1.2-2.1-1.6-3.1-1-2-1.6-4.3-2.3-6.6-1.2-4.6-2-9.4-2.6-14.2-.6-4.8-1-9.7-1.2-14.5-.1-2.4-.2-4.9 0-7.2.1-1.2.1-2.4.3-3.6l.6-3.6.1-.9.2-.9.5-1.7.5-1.7c.1-.6.4-1.1.6-1.7.4-1.1.8-2.3 1.3-3.4l1.6-3.2c2.3-4.2 5.3-8 8.8-11.1 3.5-3.1 7.6-5.6 12-7.2s9-2.5 13.6-2.7 9.3.3 13.8 1.5c8.9 2.4 17 7.9 22.6 15.7l2 3c.6 1 1.1 2.1 1.7 3.2.6 1.1 1 2.2 1.5 3.3.4 1.1.9 2.2 1.2 3.4l1 3.5c.2 1.2.5 2.4.7 3.6l.3 1.8.2 1.9c.1 1.5.2 3.8.2 5.3-.1 7.1-.6 14.2-1.8 21.2-.6 3.8-1.4 7.5-2.5 11.2-.3.9-.5 1.8-.9 2.7-.4.9-.6 1.8-1 2.6-.7 1.6-1.8 3.2-2.7 4.9-.5.8-.9 1.6-1.5 2.4l-1.6 2.3c-.6.8-1 1.6-1.6 2.3l-1.8 2.1c-1.1 1.5-2.5 2.7-3.7 4.1-.6.7-3.3 3-4.1 3.5 0 0-2.3 1.8-7.3 4.5-1.2.6-2.4 1.2-3.7 1.6-4.3 1.7-9.1 3.7-21.2-1.2z" fill="#c27b55" stroke-width="none" opacity="1"></path></g></g><g id="svga-group-mouth-single-move" transform="matrix(1,0,0,1,0,0)"><g id="svga-group-mouth-single"><path id="SvgjsPath5269" d="M86.62 127.55s2.05 2.59 5.62 4.12 13.46 4.37 22.92-4c0 0-1.83-1.01-4.25-2.59s-3.79-2.39-5.87-2.71-3.23.58-4.6.64c-1.37.05-2.88-.8-4.51-.66-3.58.3-9.36 4.5-9.36 4.5l.05.7z" fill="#da7c87" stroke-width="none" opacity="1" transform="translate(0 2)"></path><path id="SvgjsPath5270" d="M85.9 127.36c1.93 1.35 3.95.8 6.06.2 1.1-.31 1.84-.44 3.03-.4 1.4.05 1.65.32 2.77.82.84.37 1.64.61 2.55.48 1.07-.15 1.89-.82 2.89-1.19 2.34-.87 4.17.21 6.35.86 2.06.61 4.33 1.01 6.18-.31.5-.36.08-1.04-.47-.81-2.86 1.23-5.62-.26-8.45-.67-2.23-.32-3.49.46-5.64.81-2.45.4-4.48-1.02-6.92-1.03-2.61-.02-5.17 1.6-7.62 0-.78-.53-1.48.71-.73 1.24z" fill="#cb5f6c" stroke-width="none" opacity="1" transform="translate(0 2)"></path></g></g><g id="svga-group-eyes-left-move" transform="matrix(1,0,0,1,0,0)"><g id="svga-group-eyes-left"><g id="svga-group-eyesback-left"><path id="SvgjsPath6192" d="M89.8 98.6s-.1-2.2-.9-3.6-3.1-4.1-7.5-4.4c-4.4-.3-11.6 1.1-11.6 1.1s.9 1.5 2.3 2.8c1.4 1.3 4.7 3.3 7.1 3.6 2.4.3 6 .2 7.3.2 1.3-.1 3.3.3 3.3.3z" fill="#ffffff" stroke-width="none" opacity="1"></path></g><g id="svga-group-eyesiriswrapper-left" transform="matrix(1,0,0,1,0,0)"><g id="svga-group-eyesiriscontrol-left" transform="matrix(1,0,0,1,0,0)"><g id="svga-group-eyesiris-left"><path id="SvgjsPath6409" d="M80.1 88c3 0 5.5 2.5 5.5 5.5S83.1 99 80.1 99s-5.5-2.5-5.5-5.5 2.5-5.5 5.5-5.5z" fill="#4e60a3" stroke-width="none" opacity="1"></path><path id="SvgjsPath6410" d="M80.1 89.7c2.1 0 3.8 1.7 3.8 3.8s-1.7 3.8-3.8 3.8-3.8-1.7-3.8-3.8 1.7-3.8 3.8-3.8z" fill="#000000" stroke-width="none" opacity="1"></path><path id="SvgjsPath6411" d="m76.1 91 4.3 3-1.7-5c-.4-.4-2.5.8-2.6 2z" fill="#ffffff" stroke-width="none" opacity="1"></path></g></g></g><g id="svga-group-eyesfront-left"><path id="SvgjsPath6200" d="M69.4 94.6c0 6.4 4.7 11.5 10.6 11.5s10.6-5.2 10.6-11.5S85.9 83.1 80 83.1s-10.6 5.1-10.6 11.5zm.5-3s7.1-1.4 11.6-1.1c4.4.3 6.7 3 7.5 4.4.8 1.4.9 3.6.9 3.6s-2-.4-3.3-.4c-1.3 0-4.9.1-7.3-.2-2.4-.3-5.6-2.3-7.1-3.6-1.4-1.2-2.3-2.7-2.3-2.7z" fill="#f0c7b1" stroke-width="none" opacity="1"></path><path id="SvgjsPath6201" d="M68.9 92h.8c1.8 2.6 4.3 4.6 7.3 5.8 4.2 1.6 8.5.5 12.8 1.2.2 0 .4-.2.3-.4.2-3.7-2.5-6.6-5.8-7.8-4.8-1.8-10.5-.1-15.3.5-.6 0-.6.7-.1.7zm1.6-.1c3.3-.3 6.5-1.1 9.8-1 4.4.2 9.1 2.4 9.2 7.4-3-1.1-6.3-.1-9.4-.6-4-.6-7.2-2.7-9.6-5.8z" fill="#000000" stroke-width="none" opacity="1"></path></g></g></g><g id="svga-group-eyes-right-move" transform="matrix(1,0,0,1,0,0)"><g id="svga-group-eyes-right"><g id="svga-group-eyesback-right"><path id="SvgjsPath6193" d="M110.2 98.6s.1-2.2.9-3.6 3.1-4.1 7.5-4.4c4.4-.3 11.6 1.1 11.6 1.1s-.9 1.5-2.3 2.8c-1.4 1.3-4.7 3.3-7.1 3.6-2.4.3-6 .2-7.3.2-1.3-.1-3.3.3-3.3.3z" fill="#ffffff" stroke-width="none" opacity="1"></path></g><g id="svga-group-eyesiriswrapper-right" transform="matrix(1,0,0,1,0,0)"><g id="svga-group-eyesiriscontrol-right" transform="matrix(1,0,0,1,0,0)"><g id="svga-group-eyesiris-right"><path id="SvgjsPath6412" d="M119.9 88c3 0 5.5 2.5 5.5 5.5s-2.5 5.5-5.5 5.5-5.5-2.5-5.5-5.5 2.5-5.5 5.5-5.5z" fill="#4e60a3" stroke-width="none" opacity="1"></path><path id="SvgjsPath6413" d="M119.9 89.7c2.1 0 3.8 1.7 3.8 3.8s-1.7 3.8-3.8 3.8-3.8-1.7-3.8-3.8 1.7-3.8 3.8-3.8z" fill="#000000" stroke-width="none" opacity="1"></path><path id="SvgjsPath6414" d="m115.9 91 4.3 3-1.7-5c-.3-.4-2.4.8-2.6 2z" fill="#ffffff" stroke-width="none" opacity="1"></path></g></g></g><g id="svga-group-eyesfront-right"><path id="SvgjsPath6202" d="M120 83.1c-5.9 0-10.6 5.2-10.6 11.5s4.7 11.5 10.6 11.5 10.6-5.2 10.6-11.5-4.8-11.5-10.6-11.5zm7.8 11.3c-1.4 1.3-4.7 3.3-7.1 3.6-2.4.3-6 .2-7.3.2-1.3 0-3.3.4-3.3.4s.1-2.2.9-3.6 3.1-4.1 7.5-4.4c4.4-.3 11.6 1.1 11.6 1.1s-.9 1.4-2.3 2.7z" fill="#f0c7b1" stroke-width="none" opacity="1"></path><path id="SvgjsPath6205" d="M131.1 91.2c-4.9-.6-10.5-2.3-15.3-.5-3.3 1.3-6 4.1-5.8 7.8-.1.2 0 .4.3.4 4.3-.7 8.7.4 12.8-1.2 2.9-1.1 5.5-3.2 7.3-5.8h.8c.4.1.4-.6-.1-.7zm-11.2 6.5c-3.1.5-6.4-.5-9.4.6 0-5 4.8-7.2 9.2-7.4 3.3-.1 6.5.7 9.8 1-2.4 3.1-5.6 5.2-9.6 5.8z" fill="#000000" stroke-width="none" opacity="1"></path></g></g></g><g id="svga-group-facehighlight-single"></g><g id="svga-group-eyebrows-left-move" transform="matrix(1,0,0,1,0,0)"><g id="svga-group-eyebrows-left-rotate" transform="matrix(1,1.7453292519943295e-9,-1.7453292519943295e-9,1,1.4176201545978984e-7,-1.3606350535155798e-7)"><g id="svga-group-eyebrows-left"><path id="SvgjsPath6750" d="M65.5 85.3c.1-.5.4-.9.6-1.4.2-.5.5-1.1.8-1.5-.1-.2-.1-.5.1-.7.4-.6.8-1.1 1.2-1.8.3-.6.5-1.3.9-1.8.5-.7 1.8-.6 2.8-.4.5-.1 1.1-.1 1.6 0 .2 0 .9.1 1.3.3h.1c1.2-.2 2.4-.3 3.6.3.7 0 1.4 0 2.1.1 1.1.1 2.3.1 3.3.4H85.6c.7-.1 1.4-.1 2.2-.2h.1c.3-.1.5-.2.8-.3.2-.1.3 0 .4.1.1 0 .2-.1.3-.1.1 0 .2 0 .2.1.5-.2 1-.4 1.5-.5h.1c.2-.2.5-.1.4.2-.1.6-.3 1-.7 1.5-.3.4-.6.8-1 1.1.3 0 .7-.1 1-.1.1-.1.3-.2.4-.3.4-.4.9-.9 1.2-1.4.1-.2.4.1.3.2-.1.1-.2.2-.2.4v.1c0 .1-.1.1-.1.1v.2c-.2.7-.6 1.4-1.1 2 .1.1.1.2.1.3-.4 1.1-1.6 2.1-2.7 2.7-.2.1-.5.1-.6-.1-1.6.2-3.5.2-5.3.2-1.3 0-3 .1-4.2-.6-.8.1-1.7-.2-2.6-.4-1 .5-2.1.1-3.1-.2-.4-.1-.7-.3-1.1-.4-.3.1-.7.1-1.1.1h-.5c-.3.3-.6.5-1 .8-.5.3-1 .7-1.6.8h-.2c-.3.2-.6.4-.9.5-.1.2-.2.4-.4.6-.1.1-.2.1-.3.1-.2.2-.4.4-.7.4-.2 0-.3-.2-.3-.3 0-.5.3-.8.6-1.1z" fill="#2a232b" stroke-width="none" opacity="1"></path><path id="SvgjsPath6751" d="M84.8 84.3c1.4-.6 2.8-1 4.1-1.8 1.4-.8 2.5-1.9 3.7-3.1.1-.1.3 0 .2.2-1.6 2.4-4.8 4.8-7.8 5-.3.1-.4-.2-.2-.3zm.4.6c1.9-.4 3.6-.9 5.2-1.9.1-.1.2.1.1.2-1.5 1.2-3.4 2-5.3 2-.1-.1-.1-.3 0-.3zm-2.8-1.3c1.1-.7 2.2-1.3 3.3-2.1s1.9-1.8 2.8-2.7c.1-.1.2 0 .2.1-1.1 2.1-3.8 4.3-6.2 4.8-.2.1-.2-.1-.1-.1zm-5.6.7c2.6-1.4 5-2.5 6.5-5.2.1-.1.2 0 .2.1-1.2 2.6-3.8 4.6-6.6 5.3-.2 0-.3-.2-.1-.2zm-3.5-1.1c.7-.7 1.6-1.3 2.2-2.1.7-.9 1.1-1.9 1.7-2.8.1-.1.3-.1.2.1-.2 1.9-2.2 4.5-4 5.1-.1.1-.2-.1-.1-.3zm-2.6-.1c1.6-1.5 3-2.8 3.9-4.8.1-.1.3 0 .2.1-.7 2-1.9 4.1-3.9 5-.1 0-.3-.2-.2-.3zm-5.6 1.8c.9-.6 1.9-.9 2.9-1.3.8-.3 1.6-.7 2.5-.4.1 0 .1.2 0 .2-.9-.1-1.8.4-2.7.8-.8.3-1.7.8-2.6.9-.2.1-.3-.1-.1-.2z" fill="#3a353a" stroke-width="none" opacity="1"></path><path id="SvgjsPath6752" d="M64 87c-.2.2 0 .4.2.4h.1c.1.1.3.1.4 0 0-.1.1-.1.1-.1 1.1-.4 2.1-1.2 3-1.8.9-.5 1.8-1 2.6-1.7 2.9.8 6.2.9 9.2 1.2 2.9.2 6 .4 9 .2.1.1.2.1.3.1.1 0 .1-.1.1-.1h.3c.2 0 .2-.2.2-.3 2.1-1.5 3.5-3.7 3.7-6.3 0-.1 0-.1-.1-.1 0-.1-.2-.2-.3-.1l-1.2 1.2-.1.1c.3-.4.4-1 .5-1.5 0-.3-.3-.3-.4-.1-.2.6-.4 1.1-.8 1.6-.3.4-.9.8-1.1 1.2-.1.1 0 .2.1.2.2 0 .5-.1.7-.3h.1c.6-.2 1-.5 1.5-.9.2-.2.5-.5.7-.8-.6 2.3-1.9 4.2-3.9 5.4-1.6-.1-3.1-.1-4.7-.2 1-.5 2-1.3 2.7-1.9 1.3-1.1 2.3-2.5 3-4.1.7-.1 1.3-.3 1.9-.6.1-.1.1-.2-.1-.2-1 0-1.9.3-2.9.4-.9.1-1.8.1-2.7.1-1.8 0-3.6-.1-5.4-.3-3.6-.3-7.6-1.1-11.2-.7-.2 0-.3.2-.3.4-1.1 1.4-1.9 3-2.7 4.6-.7 1.4-1.6 3-2 4.5l-.5.5zm1.5-1.1c.6-1.2 1-2.4 1.6-3.6.8-1.5 1.6-2.9 2.3-4.5 2 .1 4 0 5.9.2 1.9.2 3.8.4 5.7.5 1.9.2 3.8.3 5.7.2.8 0 1.8-.1 2.7-.2-.9 1.4-1.9 2.6-3.2 3.6-.7.5-1.4 1-2.2 1.4-.6.3-1.2.4-1.7.8h-.9c1.6-.9 3.1-2.4 3.6-4.1.1-.2-.2-.3-.3-.2-.6.7-1.1 1.6-1.8 2.3-.7.7-1.5 1.3-2.3 1.9h-.7c-1.5-.1-3.1-.3-4.6-.4.9-.8 1.6-2 1.8-3.1 0-.1-.2-.2-.2-.1-.3.6-.6 1.2-1 1.7-.3.5-.8.9-1.2 1.3-1.1-.2-2.2-.4-3.3-.5.1-.1 0-.4-.2-.3-.2.1-.4.2-.7.3 0 0-.1 0-.1.1-1 .5-1.9 1.1-2.8 1.6-.8.4-1.4.7-2.1 1.1z" fill="#1b141c" stroke-width="none" opacity="1"></path></g></g></g><g id="svga-group-eyebrows-right-move" transform="matrix(1,0,0,1,0,0)"><g id="svga-group-eyebrows-right-rotate" transform="matrix(1,1.7453292519943295e-9,-1.7453292519943295e-9,1,1.4176202967064455e-7,-2.127084570702209e-7)"><g id="svga-group-eyebrows-right"><path id="SvgjsPath6753" d="M134.5 85.3c-.1-.5-.4-.9-.6-1.4-.2-.5-.5-1.1-.8-1.5.1-.2.1-.5-.1-.7-.4-.6-.9-1.1-1.2-1.8-.3-.6-.5-1.3-.9-1.8-.5-.7-1.8-.6-2.8-.4-.5-.1-1.1-.1-1.6 0-.2 0-.9.1-1.3.3h-.1c-1.2-.2-2.4-.3-3.6.3-.7 0-1.4 0-2.1.1-1.1.1-2.3.1-3.3.4H114.4c-.7-.1-1.4-.1-2.2-.2h-.1c-.3-.1-.5-.2-.8-.3-.2-.1-.3 0-.4.1-.1 0-.2-.1-.3-.1-.1 0-.2 0-.2.1-.5-.2-1-.4-1.5-.5h-.1c-.2-.2-.5-.1-.4.2.1.6.3 1 .7 1.5.3.4.6.8 1 1.1-.3 0-.7-.1-1-.1-.1-.1-.3-.2-.4-.3-.4-.4-.9-.9-1.2-1.4-.1-.2-.4.1-.3.2.1.1.2.2.2.4v.1c0 .1.1.1.1.1v.2c.2.7.6 1.4 1.1 2-.1.1-.1.2-.1.3.4 1.1 1.6 2.1 2.7 2.7.2.1.5.1.6-.1 1.8.1 3.7.1 5.6.1 1.3 0 3 .1 4.2-.6.8.1 1.7-.2 2.6-.4 1 .5 2.1.1 3.1-.2.4-.1.7-.3 1.1-.4.4.1.7.1 1.1.1h.5c.3.3.6.5 1 .8.5.3 1 .7 1.6.8h.2c.3.2.6.4.9.5.1.2.2.4.4.6.1.1.2.1.3.1.2.2.4.4.7.4.2 0 .3-.2.3-.3-.3-.4-.6-.7-.9-1z" fill="#2a232b" stroke-width="none" opacity="1"></path><path id="SvgjsPath6754" d="M115.2 84.3c-1.4-.6-2.8-1-4.1-1.8-1.4-.8-2.5-1.9-3.7-3.1-.1-.1-.3 0-.2.2 1.6 2.4 4.8 4.8 7.8 5 .3.1.4-.2.2-.3zm-.4.6c-1.9-.4-3.6-.9-5.2-1.9-.1-.1-.2.1-.1.2 1.5 1.2 3.4 2 5.3 2 .1-.1.1-.3 0-.3zm2.8-1.3c-1.1-.7-2.2-1.3-3.3-2.1s-1.9-1.8-2.8-2.7c-.1-.1-.2 0-.2.1 1.1 2.1 3.8 4.3 6.2 4.8.2.1.2-.1.1-.1zm5.6.7c-2.6-1.4-5-2.5-6.5-5.2-.1-.1-.2 0-.2.1 1.2 2.6 3.8 4.6 6.6 5.3.2 0 .3-.2.1-.2zm3.5-1.1c-.7-.7-1.6-1.3-2.2-2.1-.7-.9-1.1-1.9-1.7-2.8-.1-.1-.3-.1-.2.1.2 1.9 2.2 4.5 4 5.1.1.1.2-.1.1-.3zm2.6-.1c-1.6-1.5-3-2.8-3.9-4.8-.1-.1-.3 0-.2.1.7 2 1.9 4.1 3.9 5 .1 0 .3-.2.2-.3zm5.6 1.8c-.9-.6-1.9-.9-2.9-1.3-.8-.3-1.6-.7-2.5-.4-.1 0-.1.2 0 .2.9-.1 1.8.4 2.7.8.8.3 1.7.8 2.6.9.2.1.3-.1.1-.2z" fill="#3a353a" stroke-width="none" opacity="1"></path><path id="SvgjsPath6755" d="M135.6 86.7c-.4-1.6-1.3-3.1-2-4.5-.8-1.6-1.6-3.2-2.7-4.6 0-.2-.1-.4-.3-.4-3.7-.5-7.6.3-11.2.7-1.8.2-3.6.3-5.4.3-.9 0-1.8-.1-2.7-.1-1-.1-1.9-.4-2.9-.4-.1 0-.2.2-.1.2.6.3 1.2.5 1.9.6.7 1.6 1.7 3 3 4.1.7.6 1.7 1.4 2.7 1.9-1.6.1-3.1.1-4.7.2-2-1.2-3.4-3.2-3.9-5.4.2.3.5.5.7.8.4.4.9.8 1.5.9h.1c.2.2.4.3.7.3.1 0 .2-.1.1-.2-.2-.5-.8-.8-1.1-1.2-.4-.5-.6-1.1-.8-1.6-.1-.2-.4-.2-.4.1 0 .5.2 1 .5 1.5l-.1-.1-1.2-1.2c-.1-.1-.3 0-.3.1l-.1.1c.2 2.6 1.6 4.9 3.7 6.3 0 .1 0 .3.2.3h.3c.1 0 .1.1.1.1.1.1.2 0 .3-.1 3 .2 6 0 9-.2s6.3-.3 9.2-1.2c.8.6 1.8 1.1 2.6 1.7.9.6 1.9 1.3 3 1.8 0 .1.1.1.1.1.1.2.3.2.4 0h.1c.2.1.4-.2.2-.4-.2-.3-.3-.4-.5-.5zm-3-1.9c-.9-.6-1.8-1.2-2.8-1.6 0 0-.1 0-.1-.1l-.6-.3c-.2-.1-.3.2-.2.3-1.1.1-2.2.3-3.3.5-.4-.4-.8-.8-1.2-1.3-.4-.6-.7-1.1-1-1.7-.1-.1-.2 0-.2.1.2 1.1.9 2.3 1.8 3.1-1.5.2-3.1.3-4.6.4h-.7c-.8-.6-1.7-1.2-2.3-1.9-.7-.7-1.2-1.5-1.8-2.3-.1-.2-.4 0-.3.2.5 1.7 2 3.2 3.6 4.1h-.9c-.5-.4-1.1-.6-1.7-.8-.8-.4-1.5-.9-2.2-1.4-1.3-1-2.3-2.2-3.2-3.6.9.1 1.8.2 2.7.2 1.9.1 3.8 0 5.7-.2 1.9-.2 3.8-.4 5.7-.5 2-.2 4-.1 5.9-.2.6 1.6 1.5 3 2.3 4.5.6 1.1 1 2.4 1.6 3.6-1-.4-1.6-.7-2.2-1.1z" fill="#1b141c" stroke-width="none" opacity="1"></path></g></g></g><g id="svga-group-beardwrap"><g id="svga-group-beard-single-move" transform="matrix(1,0,0,1,0,0)"><g id="svga-group-beard-single"><path id="SvgjsPath9037" d="M83.9 145.3c.7 3.5 3.2 7.2 4.9 9.4 2 2.5 7.1 3.1 7.1 3.1v-.8s.1.8 2.4 1.3 4.6-.1 4.6-.1l1.7-1.4-.1 1.1s2.1-.1 3.7-1.1v1.1s2.7-1.6 5-6.3c2.4-4.7 3.7-5.6 2-8.3-2-3-31.1-5.2-31.3 2z" fill="#2a232b" stroke-width="none" opacity="1"></path><path id="SvgjsPath9038" d="M90.4 155c-.6-1-1-2.1-1.6-3.1-.1-.1-.3-.1-.3.1.2.7.5 1.4.9 2-.8-.7-1.5-1.5-2.1-2.4-1.6-2.3-2.3-4.9-3-7.5-.1-.2-.3-.1-.3 0 0 5.2 4 11.6 9 13.4.2.1.4-.2.2-.4-1-.7-1.9-1.3-2.8-2.1zm6.1.6c-.1-.2-.4-.1-.3.1.1.8.3 1.5.7 2.3-1.9-2.2-3.6-4.4-4.7-7.2-.1-.2-.3-.1-.3.1.6 2.4 1.8 4.8 3.5 6.7-.7-.3-1.4-.6-2-1.2-.8-.7-1.6-1.5-2.3-2.3-.1-.1-.4.1-.3.2 1.2 1.7 3 4.2 5.3 4 .4.4.9.8 1.4 1.1 0 .1.1.1.1.2.1.2.5 0 .4-.2-.5-1.2-.9-2.6-1.5-3.8zm1.4 1.5c-.2-.3-.6 0-.4.3.4.7 1 1.4 1.8 1.6.2 0 .3-.2.2-.3-.6-.6-1.2-1-1.6-1.6zm-9.8-7.1c.2.2.5-.1.4-.4-1.3-1.8-2.4-3.4-3.2-5.5-.1-.2-.4-.1-.4.1.3 2.2 1.4 4.5 3.2 5.8zm.5-1.5c.3 1 .9 2.3 1.9 2.7.2.1.4-.2.3-.4-.3-.4-.7-.7-1-1.1-.3-.4-.6-.9-.8-1.4 0-.2-.4-.1-.4.2zm13.3 7.1c-.3 1-.5 2-.9 2.9-.1.1.1.3.2.1.6-.9 1-1.9 1-3 0-.2-.3-.2-.3 0zm2-2.3c-.7 1.8-1.3 3.5-2.4 5.1-.1.2.2.4.3.3 1.3-1.4 2.5-3.3 2.6-5.2.1-.5-.4-.5-.5-.2zm.7 1.8c-.3.4-.5 1-.7 1.5-.3.5-.5.9-.9 1.4-.2.2.2.5.4.3.8-.8 1.7-1.9 1.8-3-.1-.4-.5-.4-.6-.2zm1.8.1c-.4.3-.7.8-1 1.2-.4.4-.8.8-1.2 1.1-.3.2 0 .8.3.5.5-.3 1-.7 1.4-1.2.4-.4.8-.9.9-1.5.1-.1-.2-.2-.4-.1zm5.3-6.2c.1-.3-.4-.6-.6-.2-1.4 3-2.5 6.5-5.2 8.6-.2.2.1.5.3.4 3-1.6 4.9-5.8 5.5-8.8zm1.3.4c-1.6 2.4-2.6 5.1-4.4 7.3.1-.2.1-.4.2-.6 0-.2-.2-.3-.4-.1-.3.5-.5 1.1-.7 1.6v.1c0 .2.2.4.3.2 2.7-1.9 4.3-5.3 5.3-8.4.1-.2-.2-.3-.3-.1zm2.1-5.8c0-.4-.6-.4-.6 0-.2 3.4-.8 6.6-2.5 9.6-.1.2.2.3.2.1 1.9-2.8 3.1-6.2 2.9-9.7zm-20.4 7.7c-1.5-2.4-2.8-4.5-3.4-7.3-.1-.4-.8-.2-.7.2.5 2.7 1.6 5.6 3.6 7.5.2.2.6-.1.5-.4zm2.5 3c-1.1-2.2-2.4-4.2-3.4-6.4-.1-.2-.3-.1-.3.1.7 2.3 1.7 4.8 3.3 6.6.3.2.6 0 .4-.3zm1.2.5c-.1-.2-.2-.4-.2-.6-.1-.2-.1-.5-.2-.7-.1-.2-.1-.4-.2-.6-.2-.7-.2-1.3-.4-2-.1-.2-.4-.2-.4.1-.1 1.4.5 2.8 1.1 4 .1.1.4 0 .3-.2zm-8.9-9.1c-.4-1-1-2-1.4-3.1-.1-.1-.3-.1-.2.1.3 1.1.7 2.2 1.4 3.1 0 .1.3.1.2-.1zm11.5 10.2c.2-1.3.3-2.6.4-3.9 0-.1-.1-.1-.1 0-.1 1.3-.4 2.6-.4 3.9h.1zm-.7-1.5c0-.2-.4-.2-.4 0-.3.8-.3 1.8-.4 2.7-.4-.6-.8-1.2-1.2-1.9-.1-.1-.3 0-.2.1 0 .1.1.3.1.4 0 .1.1.2.1.3v.1c0 .1.1.1.1.2.3.8.8 1.6 1.5 2.1.1.1.3 0 .2-.2-.1-.3-.3-.6-.5-.8.5-.9.9-2 .7-3zm3.1-4.3c.4-1.6.5-3.3.6-5 0-.5-.7-.5-.7 0-.1 1.6-.3 3.3-.4 4.9 0 .4.5.4.5.1zm1.7 3.2c.8-1.7 1.2-3.7 1.4-5.6 0-.2-.4-.2-.4 0-.2 1.9-.7 3.6-1.3 5.4 0 .2.3.3.3.2zm3.8-3.1c.7-2 .9-4.2.7-6.4 0-.2-.3-.2-.3 0 .1 2.1-.3 4.2-.7 6.3 0 .2.3.3.3.1zM98.5 146c0-.7-.2-1.4-.2-2.1 0-.2-.3-.1-.3 0 .1.7.1 1.5.3 2.1 0 .1.2.1.2 0zm-1.9 1.2c0-1.6-.3-3.1-.2-4.7 0-.3-.4-.3-.4 0 0 1.6-.1 3.2.3 4.7 0 .3.3.3.3 0zm4.6 9.5c-.1-.2-.4-.2-.4 0-.2.6-.3 1.3-.3 1.9 0 .2.3.3.4.1.2-.6.4-1.4.3-2z" fill="#1b141c" stroke-width="none" opacity="1"></path></g></g></g><g id="svga-group-mustache-single-move" transform="matrix(1,0,0,1,0,0)"><g id="svga-group-mustache-single"></g></g><g id="svga-group-nose-single-move" transform="matrix(1,0,0,1,0,0)"><g id="svga-group-nose-single"><path id="SvgjsPath5250" d="M105.06 106.65c.56.92 2.64 3.61 3.09 4.9.45 1.29-.13 3.22-1.48 3.61s-3.61-.39-3.93-.19c-.32.19-1.87 2.06-2.58 1.93-.71-.13-2.64-2.13-3.03-2.13-.39 0-2.13.45-2.97.45-.84 0-2.9-.71-2.64-2.51.26-1.81 2.45-5.54 2.9-6.06.45-.52 1.48-2.32 1.74-3.42s.58-7.03.71-8.38c.13-1.35 1.35-2.97 2.58-3.09 1.23-.13 3.35.77 3.55 2.9.19 2.13.58 6.38.77 8.12.19 1.74.58 2.71 1.29 3.87z" fill="#f0c7b1" stroke-width="none" opacity="1" transform="translate(0 1)"></path><path id="SvgjsPath5251" d="M97.62 85.76c-.84 3.5-.96 7.24-1.34 10.81-.4 3.83-1.14 7.78-1.09 11.63 0 .31.48.39.55.07.78-3.52.88-7.26 1.24-10.84.39-3.82 1.1-7.79.98-11.63 0-.18-.29-.24-.34-.04z" fill="#c27b55" stroke-width="none" opacity="1" transform="translate(0 1)"></path><path id="SvgjsPath5252" d="M94.46 106.19c-1.03 1.37-1.9 2.87-2.65 4.41-.49 1-1.09 2.17-.77 3.32.53 1.89 2.93 2.49 4.5 1.58.47-.27.26-.99-.27-1-.92-.01-1.98.28-2.72-.5-.88-.94-.01-2.63.38-3.57.58-1.39 1.28-2.72 1.83-4.12.07-.19-.2-.26-.3-.12z" fill="#c27b55" stroke-width="none" opacity="1" transform="translate(0 1)"></path><path id="SvgjsPath5253" d="M94.31 113.98c2.84-.21 3.38 3.37 6.07 3.45 2.31.07 2.5-3.41 4.69-3.3.26.01.34-.35.13-.47-2.49-1.47-2.95 2.86-5.24 2.59-1.36-.16-2.32-2.16-3.54-2.73-.83-.39-1.43-.36-2.23.02-.22.09-.11.46.12.44z" fill="#c27b55" stroke-width="none" opacity="1" transform="translate(0 1)"></path><path id="SvgjsPath5254" d="M104.29 115.6c1.87.42 4.05-.16 4.49-2.24.22-1.04-.13-2.07-.67-2.95-.89-1.44-2.03-2.66-2.87-4.15-.14-.25-.49-.12-.51.14-.11 1.67 1.13 2.83 2.02 4.12.82 1.19 1.53 2.83.15 4-.63.54-1.83.44-2.6.59-.26.04-.25.43-.01.49z" fill="#c27b55" stroke-width="none" opacity="1" transform="translate(0 1)"></path><path id="SvgjsPath5255" d="M102.45 109.98c-.41-.74-1.47-.85-2.06-.26-.05.05-.24.29-.3.36-.07.09-.2.26-.23.29-.07.1-.12.21-.18.32l-.12.28c0-.01-.01.01-.03.05-.06.06-.12.13-.18.2-.18.19-.36.38-.5.6-.42.67-.08 1.42.48 1.84.87.65 2.13.13 2.74-.61.76-.89.96-2.03.38-3.07z" fill="#f8d5c3" stroke-width="none" opacity="1" transform="translate(0 1)"></path></g></g><g id="svga-group-hair-front"><path id="SvgjsPath8607" d="M55.7 57.9s-10.6 13-9.5 22.2l2.7-3.3s-5.2 15.1-9.3 20.1c0 0 4.1-1.3 6.8-4.6v7.3s4.3-10.4 8.9-14.7c0 0 1.5 8.5 6.2 12.6 0 0-1-9.5 1-15.5 0 0 4.8-10.6 4.5-16.2 0 0 .8 5.6 3.3 8.1 0 0-2.1-11 3.3-17.2 0 0 6.4 2.1 18.2-1.5 0 0 12-1 22.1 11.6 0 0-.4-8.5-5.6-12.8 0 0 7.3 3.5 11.4 2.9 0 0 7.3 5.8 11.2 6 0 0 2.3 8.1 2.3 14.5 0 0 2.9-5.2 3.3-7.7 0 0-1.9 17.2 2.7 24.2 0 0 1-5.6 2.9-7 0 0 6.8 10.2 11.6 11.8 0 0-5.6-6.8-6-14.3l5.8 3.5s-5.6-6.4-5.8-16.1c0 0 3.9.6 6 4.1 0 0-5-13.9-12-18.8 0 0 7.6 5.4 13.4 3.5 0 0-13-5.8-16.2-14.1 0 0 5.4.6 8.7 3.7 0 0-7.6-12.4-20.3-13.9 0 0 8.3-8.3 8.1-12.2 0 0-13.9 8.7-25.2 8.5 0 0 4.6-7.9 4.4-11.6 0 0-7.9 9.7-12 10.5 0 0-.2-3.3 1.2-7.4 0 0-6 8.5-8.7 9.7L97 27s-6 8.1-11 9.7c0 0 1.3-2.9.6-5.6 0 0-1.7 3.1-3.7 4.1 0 0 1.6-6 1.3-7.9 0 0-4.4 7-6.2 7.9l-.2-5.4s-4.3 8.1-7.9 10.1c0 0-.8-2.9-1.9-4.3 0 0-1 3.9-1.3 5.8 0 0-.6-8.5-6.4-11.2 0 0 3.1 13.9.8 16.8 0 0-4.5-7.7-6-8.7 0 0 1.9 9.5 1.5 11.8 0 0-7.9 4.8-9.5 9.7 0 0 6-2.5 9.1-3.7l-.5 1.8z" fill="#2a232b" stroke-width="none" opacity="1"></path><path id="SvgjsPath8608" d="M116.5 37.2c-7.8 8.4-16.7 13.2-27.8 15.5-.4.1-.3.8.1.8 10.9-1.2 21.4-7.3 28-16 .1-.3-.2-.5-.3-.3zm.6-1.2c-5.2 2.6-10.4 4.2-16 5.3-.3 0-.2.5.1.5 5.7-.5 11.3-2.4 16.2-5.4.2-.1 0-.5-.3-.4zm12.5-7.4c-2.3 4-5.2 7.1-8.7 10.1-.2.2.1.6.3.4 3.8-2.4 6.8-6.2 8.7-10.3.2-.2-.2-.4-.3-.2zM76 50.8c4.7-2.5 7.2-6.5 8.8-11.4.2-.4-.5-.6-.7-.3-1.1 1.5-2.4 2.7-4 3.8-.3.2-.1.6.3.5 1.9-.8 3.2-2.2 4.3-3.9-.2-.1-.5-.2-.7-.3-.8 4.7-4.4 8.7-8.4 11-.3.2.1.8.4.6zm6.4-1.2c2.8-1.3 5.7-3.1 7.6-5.5.2-.2-.1-.5-.3-.3-2.4 2.1-4.7 4-7.5 5.4-.3.1-.1.5.2.4zM71.3 54c-2.4 2.5-4.2 6.1-3.8 9.6.1.5.7.5.7 0 .4-3.5 1.2-6.4 3.5-9.1.4-.3-.1-.8-.4-.5zM60.9 32.3c1.8 6.7 1.1 11.8-.8 18.3-.1.4.4.6.7.3 3.6-5.3 3.5-13.2.9-18.9-.3-.4-.9-.1-.8.3zM56.3 42c-.3 3.8 1.1 7.8 4.2 10.1.3.2.6-.2.4-.5-2.5-2.8-4.1-5.8-4.2-9.6 0-.3-.4-.3-.4 0zm.2 15.9c-3.3 3.1-6 7.9-6.8 12.4-.1.3.5.6.6.3.9-2.2 1.7-4.3 2.8-6.4 1.1-2.1 2.6-3.9 3.9-5.8.3-.4-.2-.8-.5-.5zM60.1 74c-1.6 4.2-2.5 8.8-1.9 13.3.1.4.7.5.7 0 0-4.5.3-8.8 1.7-13.2.1-.3-.4-.4-.5-.1zM46.8 94.8c2.8-3.7 5.7-7.6 7.9-11.7.2-.4-.3-.8-.6-.5-3 3.6-5.4 7.8-7.8 11.8-.2.4.3.7.5.4zm52.1-40.7c4.2.6 6.7 3.1 9.2 6.3.2.2.5 0 .4-.2-1.2-3.9-5.7-6.3-9.5-6.6-.3 0-.4.5-.1.5zm10.8-2.8c5.8 2.1 12.3 3.2 18.5 2.5.4 0 .4-.5 0-.5-6.3-.3-12.3-.8-18.4-2.4-.3-.2-.4.3-.1.4zm18.1 8.5c4.6.6 8.9 1.9 13.3 3.2.4.1.6-.4.3-.6-4.2-2-8.9-2.8-13.5-2.9-.3-.1-.4.2-.1.3zm10.7 8.4c-1.3 6.1-1.5 12.8.2 18.8.1.3.7.3.7-.1-.8-6.4-1.1-12.3-.3-18.7 0-.3-.6-.4-.6 0zm-22.2-21.4c5.2.1 10.2.9 15.1 2.8-.1-.2-.1-.5-.2-.7-1.4 1.2-2.8 1.9-4.6 2.2-.2 0-.2.4.1.4 2 0 3.6-.6 5.1-1.9.3-.2.1-.6-.2-.7-4.9-2-10-2.9-15.3-2.6-.3 0-.4.5 0 .5zm23.9 8c1.4 1.4 3.3 2.9 5.3 3.3.3.1.5-.4.2-.6-.8-.5-1.8-.8-2.6-1.3-.9-.5-1.8-1.1-2.6-1.8-.2-.2-.6.1-.3.4zm2.6 7.4c2.6 2.4 4.3 5.1 6.2 8 .2.3.7.1.6-.2-1.1-3.3-3.8-6.1-6.5-8.1-.2-.3-.5.1-.3.3zm-1.3 8.4c.6 4.8 3 9.9 7 12.8.3.2.6-.2.4-.5-3.4-3.7-5.8-7.4-6.9-12.4-.1-.2-.5-.1-.5.1zm.9 12.9c.5 3.1 1.7 6.6 4.1 8.8.3.2.7-.1.5-.4-1.8-2.8-3.3-5.3-3.8-8.6-.2-.5-.9-.3-.8.2z" fill="#3a353a" stroke-width="none" opacity="1"></path><path id="SvgjsPath8609" d="M106.1 29.8c2.9-1.7 5.5-4.2 7.5-7-1.2 3.5-2.8 6.7-4.7 10-.3.5.4.8.7.4 2.8-4 4.6-8.6 5.8-13.3.1-.5-.5-.8-.8-.3-2.6 3.8-5.4 6.8-8.9 9.8-.4.1 0 .6.4.4zm-17.4 6c2.8-2.1 5.4-4.6 7.6-7.3-.6 1.8-1.4 3.5-2.2 5.2-.2.4.2.9.6.6 3.2-2.2 6.2-5 8.2-8.4-.3 1.1-.7 2.2-1 3.3-.1.3.3.4.4.1.6-1.9 1.1-3.9 1.8-5.7.2-.4-.4-.6-.7-.3-2.3 3.5-4.7 6.6-8 9.2.8-1.9 1.4-3.8 2-5.8.1-.3-.3-.6-.6-.3-2.6 3.3-5.4 6.3-8.6 9 0 .2.2.6.5.4zm-6.1-1.2c-.1.5.6.6.7.2.9-2.6 1.2-5.3 1.2-8 0-.5-.7-.7-.9-.2-1.4 2.7-3.1 5.2-5.2 7.4-.1-1.5-.1-3-.2-4.5 0-.4-.7-.7-.8-.2-1.4 3-3.2 5.6-5.2 8.3-.2.3.2.5.4.3 2-1.9 3.5-4.2 4.7-6.6 0 1.3.1 2.6.1 3.9 0 .4.5.7.8.3 2.1-2 3.8-4.3 5.2-6.8 0 1.9-.3 3.9-.8 5.9zM57 49c-.2-3.3-.8-6.7-1.4-10 2.2 2.5 3.8 5.5 4.9 8.6.1.3.7.2.6-.2-1.3-3.8-3.4-7-5.9-10.1-.2-.3-.8-.1-.8.3.5 3.8 1 7.7 1.9 11.5.2.4.7.3.7-.1zm-9.5 11.5c2.6-1.2 5.5-2.2 7.9-3.8.4-.3.2-.9-.3-.8-2.2.7-4.4 1.8-6.5 2.8 1.7-2.8 3.9-5.2 6.5-7.3.4-.3-.1-.9-.5-.7-3.3 2.3-5.9 5.4-7.7 9-.4.6.1 1.1.6.8zm-2.9 32.4-3.6 3c4.3-5.6 7.3-12.1 8.5-19.1.7-.8 1.3-1.6 2.1-2.3.5-.5-.3-1.3-.8-.8s-.9.9-1.3 1.4c-.2-.1-.5 0-.5.2s-.1.3-.1.5c-.7.9-1.4 1.8-2 2.7 1.7-7.4 4.8-14.2 9.1-20.5.3-.4-.4-.8-.7-.4-5.4 7-8.6 15.2-10.1 23.9-.1.6.7 1 1 .4.6-1.2 1.3-2.4 2.1-3.5-2 7.6-5.6 14.4-11 20.2-.4.5.1 1.3.7.9 2.7-1.7 5.2-3.6 7.3-6 .3-.4-.3-1-.7-.6zm17.3-8.8c-1.4 4.1-1.5 8.5-.9 12.8-2.8-3.5-4.3-7.4-5.2-11.8 0 0 0-.1-.1-.1.3-.4.6-.8.9-1.3.2-.3-.2-.6-.4-.3-4 4.2-7 9.4-9.4 14.6 0-4.5 1.1-8.8 2.9-13 .2-.4-.3-.7-.5-.3-2.6 4.8-3.6 10-3.2 15.4 0 .4.7.7.9.2 2.3-5.2 5.3-9.9 8.5-14.7.5 4.9 2.9 9.4 6.2 13 .3.3.8 0 .8-.4-1-4.8-.6-9.3.3-14.1-.2-.2-.7-.3-.8 0zm10.9-26.6c-2.6 3-3.5 7.4-3.5 11.2 0 1 .1 1.9.2 2.9 0 .1.1.4.2.8l-1-1.5c-.8-1.6-1.2-3.3-1.6-5-.1-.3-.7-.3-.6.1.4 3.3 1.9 6.2 3.8 8.9.2.3.7.1.6-.3-1.6-6.3-.2-11.1 2-16.9.3-.2 0-.4-.1-.2zm-11 18.9c1.2-5.5 3-10.6 5.8-15.5.2-.3-.3-.6-.4-.3-2.9 4.9-4.9 10.1-5.7 15.7 0 .2.2.3.3.1zM76.2 40c-2.2 3.5-4.4 7-6.8 10.4-.1.2.1.4.3.2 2.5-2.7 4.8-5.8 6.6-9.1.2 3.1-.8 6.1-2.7 8.6-.3.3.2.8.5.5 2.6-3 3.6-6.7 2.9-10.6-.1-.3-.6-.3-.8 0zM61.7 60.1c.3-.3-.2-.8-.5-.5-2.2 2.1-4 4.6-5.2 7.4-.4 1-2.2 4.3-.6 5.1.2.1.4.1.6-.1 1-.7 1.6-1.9 2.3-2.9 1-1.3 2-2.6 2.9-4 .2-.4-.3-.8-.6-.5-1 1.1-1.9 2.4-2.8 3.6-.1.1-1.5 2.2-1.6 2.2-.5-.2.1-1.4.2-1.7 1-3.3 2.9-6.2 5.3-8.6zm31.5-14.8c-3.1 1.9-5.9 3.8-9.4 5-.4.1-.2.8.2.7 3.4-1 7-2.6 9.6-5.1.3-.3 0-.8-.4-.6zm21.1-12.5c6.7-1 14.3-3.4 20-7.5-1.1 2.6-2.7 4.9-4.6 7-.2.2.1.6.3.4 2.6-2 4.5-4.7 5.3-7.9v-.2c.3-.2.6-.4.8-.7.2-.2-.1-.6-.3-.4-7.2 3.6-13.7 6.9-21.6 8.8-.4 0-.3.5.1.5zm12.5 4.9c8.4 1.2 14.5 5.1 19.4 11.5-3.7-3.2-8.7-4.8-13.5-4.6-.5 0-.4.7 0 .7 5.2.5 9.4 2.1 13.9 4.9.1.1.3 0 .4-.1.2.3.4.6.7.9.3.4.9.1.7-.4-3.5-8.1-12.8-13.5-21.4-13.6-.5 0-.6.6-.2.7zm-12.6 29.1c.1-5.2-2.4-10.5-7.2-12.9-.2-.1-.5.2-.3.4 3.8 3 6.3 6.8 6.8 11.6-4.5-6.6-12.4-10.6-20.3-10.9 12.1-4.1 22.9-12.2 30.6-22.1.3-.3 0-1-.5-.8-4.9 1.7-9.8 3.6-14.7 5.6-.3.1-.1.6.2.5 3.1-1 6.2-2 9.2-3.1.8-.3 3.2-1.6 3.9-1.5.2 0-1.4 1.8-1.8 2.2-3.6 4-7.6 7.5-12.1 10.5-8.9 6-18.7 9.2-29.2 11.1-.3 0-.2.5.1.5 4.5-.3 8.9-1.2 13.2-2.5 0 .1.1.2.2.2 8.9.8 15.8 5.1 21.3 12 .3.3.8-.1.6-.4.1-.3.1-.3 0-.4zm19.9-10c.4-.1.3-.8-.1-.7-8.6.7-16.2-.2-24.6-1.8-.2 0-.4.3-.2.4 3.2 1.4 6.8 2.3 10.4 2.7 5.7 4.4 13.5 7.2 20.7 6.4.4 0 .4-.5 0-.6-7.2-.8-13.1-2.2-19.2-5.7 4.4.4 8.8.1 13-.7zm5.1-9.6c-.1-.2-.5 0-.4.2 3.1 6 8.5 11.2 15.1 13.2-4.7.2-8.6-.9-12.4-4.2-.2-.2-.6.1-.4.3 3.2 4.2 9.6 6.4 14.6 4.4l.1-.1c.4.1.6-.5.2-.7-7-2.8-12.8-6.6-16.8-13.1zm17.1 53c-2.1-2.4-4.2-4.6-5.7-7.4-1.4-2.6-1.9-5.2-2.8-7.9 1.5 1.2 3.2 2.2 5.1 2.9l.3.3c.1.2.4.1.5-.1.1 0 .1.1.2.1.3.1.5-.4.2-.6-.3-.2-.6-.3-.9-.5-3.2-4.7-4.6-9.3-5.2-15 2.1 1.4 4.1 2.9 5.8 4.9 0 .1.1.2.1.3.1.2.4.2.5 0 .1-.1.2-.3.1-.4-.1-.1-.1-.2-.2-.3-1.7-7.8-7.4-14.6-13.6-19.2-.2-.1-.4.2-.2.3 5.6 4.8 9 10.4 12.1 16.8-1.9-2-4.2-3.6-6.8-4.3-.3-.1-.4.3-.2.5.6.3 1.2.7 1.8 1.1 0 .1-.1.1-.1.2-.4 5 1.3 10.2 4.3 14.3-4.3-2.7-7.8-6.1-10.2-10.7-.2-.4-.7-.1-.6.3 1.4 3.3 3.6 6.3 6.4 8.6-.3 4.1 1.8 8.9 4.7 12.6-4.2-2.8-7.6-6.2-9.8-10.7 0-.1 0-.2-.1-.2-.6-1.3-1.2-2.8-1.6-4.3-.1-.3-.6-.2-.5.1.3 1.5.8 3.1 1.4 4.6-1.2 1.7-2.3 4.3-2.3 6.6-2.6-7.9-3.1-15.1-2-23.4 0-.3-.2-.4-.4-.3.1-.5.2-1 .2-1.5.1-.4-.6-.4-.7-.1-1 2.8-1.9 5.5-3 8.2.2-4-.6-8-2-11.8-.1-.3-.6-.2-.5.2 1.5 4.6 1.7 9.3 1.6 14.1-.1.2-.2.4-.3.7-.2.4.4.6.7.3 1.1-1.7 2.1-3.7 2.8-5.7-1.1 7 .1 14.5 3.2 20.7.1.2.4.2.6.1v.1c.1.3.5.3.6 0 .5-1.3.4-2.8.8-4.2.3-1 .7-2 1.1-3 2.3 5.1 6.4 9.5 11.7 11.3.8.8 1.6 1.6 2.5 2.2.3 0 .6-.5.4-.8zm-96.8-70c1.7 5.5 1.7 10.5 1.2 16.1 0 .5.7.5.8.1 1.3-5.3.6-11-1.2-16.1 3.4 3 5.3 6.2 6.1 10.9 0 .2.4.2.4-.1.1-4.6-2.7-9.7-6.9-11.7-.2-.1-.5.2-.3.4-.1 0-.1.2-.1.4z" fill="#1b141c" stroke-width="none" opacity="1"></path></g><g id="svga-group-glasses-single-move" transform="matrix(1,0,0,1,0,0)"><g id="svga-group-glasses-single"><path id="SvgjsPath7984" d="M72.1 99.8 84.7 90l.2.2-12.7 9.8-.1-.2zm6.2-1-.2-.2 9.8-7.6.2.2-9.8 7.6zm-7.8 0-.2-.2 9.8-7.6.2.2-9.8 7.6z" fill="#ffffff" stroke-width="none" opacity="0.5"></path><path id="SvgjsPath7985" d="M91 100.5H67.8c-.6 0-1.1-.5-1.1-1.1v-8.7c0-.6.5-1.1 1.1-1.1h24.3c.6 0 1.1.5 1.1 1.1v7.6c0 1.3-1 2.2-2.2 2.2z" fill="#ffffff" stroke-width="none" opacity="0.27"></path><path id="SvgjsPath7986" d="m113.5 99.8 12.6-9.8.2.2-12.6 9.8-.2-.2zm6.3-1-.2-.2 9.8-7.6.2.2-9.8 7.6zm-7.8 0-.2-.2 9.8-7.6.2.2-9.8 7.6z" fill="#ffffff" stroke-width="none" opacity="0.5"></path><path id="SvgjsPath7987" d="M108.9 100.2h23.3c.6 0 1.1-.5 1.1-1.1v-8.7c0-.6-.5-1.1-1.1-1.1h-24.3c-.6 0-1.1.5-1.1 1.1V98c-.1 1.2.9 2.2 2.1 2.2z" fill="#ffffff" stroke-width="none" opacity="0.27"></path><path id="SvgjsPath7988" d="M93.2 92.2c2.3 0 4.5-.7 6.8-.7 2.2 0 4.6.7 6.8.7v1.3c-2.2 0-4.6-.7-6.8-.7-2.3 0-4.5.7-6.8.7v-1.3z" fill="#070201" stroke-width="none" opacity="1"></path><path id="SvgjsPath7989" d="M92.1 89.3H65v1.9h1.3v8.3c0 .8.7 1.5 1.5 1.5H91c1.4 0 2.6-1.2 2.6-2.6v-7.6c0-.9-.7-1.5-1.5-1.5zm.7 9c0 1-.8 1.8-1.8 1.8H67.8c-.4 0-.7-.3-.7-.7v-8.7c0-.4.3-.7.7-.7h24.3c.4 0 .7.3.7.7v7.6z" fill="#26120b" stroke-width="none" opacity="1"></path><path id="SvgjsPath7990" d="M135.1 89.3H108c-.8 0-1.5.7-1.5 1.5v7.6c0 1.4 1.2 2.6 2.6 2.6h23.3c.8 0 1.5-.7 1.5-1.5v-8.3h1.3l-.1-1.9zM133 99.4c0 .4-.3.7-.7.7H109c-1 0-1.8-.8-1.8-1.8v-7.6c0-.4.3-.7.7-.7h24.3c.4 0 .7.3.7.7l.1 8.7z" fill="#26120b" stroke-width="none" opacity="1"></path></g></g></g></g></g><rect id="svga-credit-rect" width="200" height="15" x="0" y="185" fill="#ecf0f1" opacity="0.5" style="display: none;"></rect><text id="svga-credit-text" font-family="Avenir Next, Roboto, Helvetica, Arial, sans-serif" font-size="10px" text-anchor="start" font-weight="400" size="10px" anchor="start" weight="400" fill="#333333" x="33.40447998046875" y="182.60824704170227" style="display: none;"><tspan id="SvgjsTspan5058" dy="13" x="33.40447998046875">Created on AvatarMaker.com</tspan></text></g><defs id="SvgjsDefs5005"><linearGradient id="SvgjsLinearGradient7849" x1="80.1148" y1="85.6753" x2="80.1148" y2="106.5316" gradientUnits="userSpaceOnUse" class="svga-on-canvas-glasses-gradient-single-0-null"><stop id="SvgjsStop7850" stop-opacity="1" stop-color="#97a1ad" offset="0" ></stop><stop id="SvgjsStop7851" stop-opacity="0.6667" stop-color="#889ab3" offset="0.3333" ></stop><stop id="SvgjsStop7852" stop-opacity="0.0313" stop-color="#6287c3" offset="0.9687" ></stop><stop id="SvgjsStop7853" stop-opacity="0" stop-color="#6086c4" offset="1" ></stop></linearGradient><linearGradient id="SvgjsLinearGradient7855" x1="-19.8852" y1="85.6753" x2="-19.8852" y2="106.5316" gradientTransform="matrix(-1 0 0 1 100 0)" gradientUnits="userSpaceOnUse" class="svga-on-canvas-glasses-gradient-single-1-null"><stop id="SvgjsStop7856" stop-opacity="1" stop-color="#97a1ad" offset="0" ></stop><stop id="SvgjsStop7857" stop-opacity="0.6667" stop-color="#889ab3" offset="0.3333" ></stop><stop id="SvgjsStop7858" stop-opacity="0.0313" stop-color="#6287c3" offset="0.9687" ></stop><stop id="SvgjsStop7859" stop-opacity="0" stop-color="#6086c4" offset="1" ></stop></linearGradient><linearGradient id="SvgjsLinearGradient7921" x1="81.0032" y1="84.4741" x2="81.0032" y2="109.8612" gradientUnits="userSpaceOnUse" class="svga-on-canvas-glasses-gradient-single-0-null"><stop id="SvgjsStop7922" stop-opacity="1" stop-color="#9ab4d3" offset="0" ></stop><stop id="SvgjsStop7923" stop-opacity="0.7593" stop-color="#93aed1" offset="0.2407" ></stop><stop id="SvgjsStop7924" stop-opacity="0.4009" stop-color="#7e9ecc" offset="0.5991" ></stop><stop id="SvgjsStop7925" stop-opacity="0" stop-color="#6086c4" offset="1" ></stop></linearGradient><linearGradient id="SvgjsLinearGradient7927" x1="-18.9968" y1="84.4741" x2="-18.9968" y2="109.8612" gradientTransform="matrix(-1 0 0 1 100 0)" gradientUnits="userSpaceOnUse" class="svga-on-canvas-glasses-gradient-single-1-null"><stop id="SvgjsStop7928" stop-opacity="1" stop-color="#9ab4d3" offset="0" ></stop><stop id="SvgjsStop7929" stop-opacity="0.7593" stop-color="#93aed1" offset="0.2407" ></stop><stop id="SvgjsStop7930" stop-opacity="0.4009" stop-color="#7e9ecc" offset="0.5991" ></stop><stop id="SvgjsStop7931" stop-opacity="0" stop-color="#6086c4" offset="1" ></stop></linearGradient></defs></svg>